{
  "accessors": [
    {
      "bufferView": 2,
      "componentType": 5126,
      "count": 885,
      "max": [
        26.09429931640625,
        19.240299224853516,
        45.0
      ],
      "min": [
        -13.001099586486816,
        -19.854999542236328,
        0.0
      ],
      "type": "VEC3"
    },
    {
      "bufferView": 2,
      "byteOffset": 10620,
      "componentType": 5126,
      "count": 885,
      "max": [
        0.9961909055709839,
        0.9999624490737915,
        0.9962184429168701
      ],
      "min": [
        -0.9961909055709839,
        -1.0,
        -0.9962239861488342
      ],
      "type": "VEC3"
    },
    {
      "bufferView": 3,
      "componentType": 5126,
      "count": 885,
      "max": [
        0.9999991059303284,
        0.9999873042106628,
        0.9645789265632629,
        1.0
      ],
      "min": [
        -1.0,
        -0.9999871850013733,
        -0.8062893152236938,
        -1.0
      ],
      "type": "VEC4"
    },
    {
      "bufferView": 1,
      "componentType": 5126,
      "count": 885,
      "max": [
        0.9980000257492065,
        0.8916000127792358
      ],
      "min": [
        0.0020000000949949026,
        0.0020000000949949026
      ],
      "type": "VEC2"
    },
    {
      "bufferView": 1,
      "byteOffset": 7080,
      "componentType": 5126,
      "count": 885,
      "max": [
        0.9980000257492065,
        0.8916000127792358
      ],
      "min": [
        0.0020000000949949026,
        0.0020000000949949026
      ],
      "type": "VEC2"
    },
    {
      "bufferView": 1,
      "byteOffset": 14160,
      "componentType": 5126,
      "count": 885,
      "max": [
        0.9980000257492065,
        0.8916000127792358
      ],
      "min": [
        0.0020000000949949026,
        0.0020000000949949026
      ],
      "type": "VEC2"
    },
    {
      "bufferView": 1,
      "byteOffset": 21240,
      "componentType": 5126,
      "count": 885,
      "max": [
        0.9980000257492065,
        0.8916000127792358
      ],
      "min": [
        0.0020000000949949026,
        0.0020000000949949026
      ],
      "type": "VEC2"
    },
    {
      "bufferView": 0,
      "componentType": 5125,
      "count": 4650,
      "type": "SCALAR"
    },
    {
      "bufferView": 2,
      "byteOffset": 21240,
      "componentType": 5126,
      "count": 4960,
      "max": [
        38.51070022583008,
        32.451499938964844,
        181.27540588378906
      ],
      "min": [
        -32.54890060424805,
        -34.951499938964844,
        98.16059875488281
      ],
      "type": "VEC3"
    },
    {
      "bufferView": 2,
      "byteOffset": 80760,
      "componentType": 5126,
      "count": 4960,
      "max": [
        0.9970543384552002,
        0.999954342842102,
        0.9994663596153259
      ],
      "min": [
        -0.9970022439956665,
        -0.9999535083770752,
        -0.9993991851806641
      ],
      "type": "VEC3"
    },
    {
      "bufferView": 3,
      "byteOffset": 14160,
      "componentType": 5126,
      "count": 4960,
      "max": [
        0.9999498128890991,
        0.9924055337905884,
        0.9993969798088074,
        1.0
      ],
      "min": [
        -0.9999750852584839,
        -0.9789523482322693,
        -0.9996933937072754,
        -1.0
      ],
      "type": "VEC4"
    },
    {
      "bufferView": 1,
      "byteOffset": 28320,
      "componentType": 5126,
      "count": 4960,
      "max": [
        0.8043000102043152,
        0.9980000257492065
      ],
      "min": [
        0.18569999933242798,
        0.0020000000949949026
      ],
      "type": "VEC2"
    },
    {
      "bufferView": 1,
      "byteOffset": 68000,
      "componentType": 5126,
      "count": 4960,
      "max": [
        0.8043000102043152,
        0.9980000257492065
      ],
      "min": [
        0.18569999933242798,
        0.0020000000949949026
      ],
      "type": "VEC2"
    },
    {
      "bufferView": 0,
      "byteOffset": 18600,
      "componentType": 5125,
      "count": 22080,
      "type": "SCALAR"
    },
    {
      "bufferView": 2,
      "byteOffset": 140280,
      "componentType": 5126,
      "count": 2284,
      "max": [
        19.583900451660156,
        12.499899864196777,
        170.64300537109375
      ],
      "min": [
        -16.49049949645996,
        -15.369400024414063,
        37.04790115356445
      ],
      "type": "VEC3"
    },
    {
      "bufferView": 2,
      "byteOffset": 167688,
      "componentType": 5126,
      "count": 2284,
      "max": [
        0.9999862909317017,
        0.9992269277572632,
        0.9999929666519165
      ],
      "min": [
        -0.999985933303833,
        -0.7988824844360352,
        -0.9999918937683105
      ],
      "type": "VEC3"
    },
    {
      "bufferView": 3,
      "byteOffset": 93520,
      "componentType": 5126,
      "count": 2284,
      "max": [
        0.9948662519454956,
        0.9999565482139587,
        0.9951063990592957,
        1.0
      ],
      "min": [
        -0.9992414116859436,
        -0.9999604821205139,
        -0.9984381198883057,
        -1.0
      ],
      "type": "VEC4"
    },
    {
      "bufferView": 1,
      "byteOffset": 107680,
      "componentType": 5126,
      "count": 2284,
      "max": [
        0.5720000267028809,
        0.9830999970436096
      ],
      "min": [
        0.0494999997317791,
        0.014600000344216824
      ],
      "type": "VEC2"
    },
    {
      "bufferView": 1,
      "byteOffset": 125952,
      "componentType": 5126,
      "count": 2284,
      "max": [
        0.5720000267028809,
        0.9830999970436096
      ],
      "min": [
        0.0494999997317791,
        0.014600000344216824
      ],
      "type": "VEC2"
    },
    {
      "bufferView": 0,
      "byteOffset": 106920,
      "componentType": 5125,
      "count": 11628,
      "type": "SCALAR"
    }
  ],
  "asset": {
    "extras": {
      "author": "juanmatteo (https://sketchfab.com/juanmatteo)",
      "license": "CC-BY-4.0 (http://creativecommons.org/licenses/by/4.0/)",
      "source": "https://sketchfab.com/3d-models/maceta-01-493c3852e0304a22918e237be3b62637",
      "title": "Maceta_01"
    },
    "generator": "Sketchfab-16.65.0",
    "version": "2.0"
  },
  "bufferViews": [
    {
      "buffer": 0,
      "byteLength": 153432,
      "name": "floatBufferViews",
      "target": 34963
    },
    {
      "buffer": 0,
      "byteLength": 144224,
      "byteOffset": 153432,
      "byteStride": 8,
      "name": "floatBufferViews",
      "target": 34962
    },
    {
      "buffer": 0,
      "byteLength": 195096,
      "byteOffset": 297656,
      "byteStride": 12,
      "name": "floatBufferViews",
      "target": 34962
    },
    {
      "buffer": 0,
      "byteLength": 130064,
      "byteOffset": 492752,
      "byteStride": 16,
      "name": "floatBufferViews",
      "target": 34962
    }
  ],
  "buffers": [
    {
      "byteLength": 622816,
      "uri": "scene.bin"
    }
  ],
  "extensionsRequired": [
    "KHR_materials_pbrSpecularGlossiness"
  ],
  "extensionsUsed": [
    "KHR_materials_pbrSpecularGlossiness"
  ],
  "images": [
    {
      "uri": "textures/Material__25_diffuse.png"
    },
    {
      "uri": "textures/Material__25_specularGlossiness.png"
    },
    {
      "uri": "textures/Material__25_normal.png"
    },
    {
      "uri": "textures/Material__26_diffuse.png"
    },
    {
      "uri": "textures/Material__26_normal.png"
    },
    {
      "uri": "textures/Material__27_diffuse.png"
    },
    {
      "uri": "textures/Material__27_normal.png"
    }
  ],
  "materials": [
    {
      "doubleSided": true,
      "extensions": {
        "KHR_materials_pbrSpecularGlossiness": {
          "diffuseFactor": [
            1.0,
            1.0,
            1.0,
            1.0
          ],
          "diffuseTexture": {
            "index": 0
          },
          "glossinessFactor": 0.4,
          "specularFactor": [
            1.0,
            1.0,
            1.0
          ],
          "specularGlossinessTexture": {
            "index": 1
          }
        }
      },
      "name": "Material__25",
      "normalTexture": {
        "index": 2
      }
    },
    {
      "doubleSided": true,
      "extensions": {
        "KHR_materials_pbrSpecularGlossiness": {
          "diffuseFactor": [
            1.0,
            1.0,
            1.0,
            1.0
          ],
          "diffuseTexture": {
            "index": 3
          },
          "glossinessFactor": 0.277355,
          "specularFactor": [
            0.0,
            0.0,
            0.0
          ]
        }
      },
      "name": "Material__26",
      "normalTexture": {
        "index": 4
      }
    },
    {
      "doubleSided": true,
      "extensions": {
        "KHR_materials_pbrSpecularGlossiness": {
          "diffuseFactor": [
            1.0,
            1.0,
            1.0,
            1.0
          ],
          "diffuseTexture": {
            "index": 5
          },
          "glossinessFactor": 0.4,
          "specularFactor": [
            0.0,
            0.0,
            0.0
          ]
        }
      },
      "name": "Material__27",
      "normalTexture": {
        "index": 6
      }
    }
  ],
  "meshes": [
    {
      "name": "Object_0",
      "primitives": [
        {
          "attributes": {
            "NORMAL": 1,
            "POSITION": 0,
            "TANGENT": 2,
            "TEXCOORD_0": 3,
            "TEXCOORD_1": 4,
            "TEXCOORD_2": 5,
            "TEXCOORD_3": 6
          },
          "indices": 7,
          "material": 0,
          "mode": 4
        }
      ]
    },
    {
      "name": "Object_1",
      "primitives": [
        {
          "attributes": {
            "NORMAL": 9,
            "POSITION": 8,
            "TANGENT": 10,
            "TEXCOORD_0": 11,
            "TEXCOORD_1": 12
          },
          "indices": 13,
          "material": 1,
          "mode": 4
        }
      ]
    },
    {
      "name": "Object_2",
      "primitives": [
        {
          "attributes": {
            "NORMAL": 15,
            "POSITION": 14,
            "TANGENT": 16,
            "TEXCOORD_0": 17,
            "TEXCOORD_1": 18
          },
          "indices": 19,
          "material": 2,
          "mode": 4
        }
      ]
    }
  ],
  "nodes": [
    {
      "children": [
        1
      ],
      "matrix": [
        1.0,
        0.0,
        0.0,
        0.0,
        0.0,
        2.220446049250313e-16,
        -1.0,
        0.0,
        0.0,
        1.0,
        2.220446049250313e-16,
        0.0,
        0.0,
        0.0,
        0.0,
        1.0
      ],
      "name": "Sketchfab_model"
    },
    {
      "children": [
        2
      ],
      "name": "root"
    },
    {
      "children": [
        3
      ],
      "matrix": [
        1.0,
        0.0,
        0.0,
        0.0,
        0.0,
        2.220446049250313e-16,
        1.0,
        0.0,
        0.0,
        -1.0,
        2.220446049250313e-16,
        0.0,
        0.0,
        0.0,
        0.0,
        1.0
      ],
      "name": "GLTF_SceneRootNode"
    },
    {
      "children": [
        4
      ],
      "matrix": [
        1.0,
        0.0,
        0.0,
        0.0,
        0.0,
        2.220446049250313e-16,
        -1.0,
        0.0,
        0.0,
        1.0,
        2.220446049250313e-16,
        0.0,
        0.0,
        0.0,
        0.0,
        1.0
      ],
      "name": "Sketchfab_model_0"
    },
    {
      "children": [
        5,
        7,
        9
      ],
      "name": "Maceta_01.obj.cleaner.materialmerger.gles_1"
    },
    {
      "children": [
        6
      ],
      "name": "Object_2_2"
    },
    {
      "mesh": 0,
      "name": "Object_6"
    },
    {
      "children": [
        8
      ],
      "name": "Object_3_3"
    },
    {
      "mesh": 1,
      "name": "Object_8"
    },
    {
      "children": [
        10
      ],
      "name": "Object_4_4"
    },
    {
      "mesh": 2,
      "name": "Object_10"
    }
  ],
  "samplers": [
    {
      "magFilter": 9729,
      "minFilter": 9987,
      "wrapS": 10497,
      "wrapT": 10497
    }
  ],
  "scene": 0,
  "scenes": [
    {
      "name": "Sketchfab_Scene",
      "nodes": [
        0
      ]
    }
  ],
  "textures": [
    {
      "sampler": 0,
      "source": 0
    },
    {
      "sampler": 0,
      "source": 1
    },
    {
      "sampler": 0,
      "source": 2
    },
    {
      "sampler": 0,
      "source": 3
    },
    {
      "sampler": 0,
      "source": 4
    },
    {
      "sampler": 0,
      "source": 5
    },
    {
      "sampler": 0,
      "source": 6
    }
  ]
}
